<svg width="419" height="54" viewBox="0 0 419 54" fill="none" xmlns="http://www.w3.org/2000/svg">
<path d="M77.02 42.294C74.976 42.294 73.128 41.944 71.476 41.244C69.852 40.544 68.564 39.536 67.612 38.22C66.66 36.904 66.17 35.35 66.142 33.558H72.442C72.526 34.762 72.946 35.714 73.702 36.414C74.486 37.114 75.55 37.464 76.894 37.464C78.266 37.464 79.344 37.142 80.128 36.498C80.912 35.826 81.304 34.958 81.304 33.894C81.304 33.026 81.038 32.312 80.506 31.752C79.974 31.192 79.302 30.758 78.49 30.45C77.706 30.114 76.614 29.75 75.214 29.358C73.31 28.798 71.756 28.252 70.552 27.72C69.376 27.16 68.354 26.334 67.486 25.242C66.646 24.122 66.226 22.638 66.226 20.79C66.226 19.054 66.66 17.542 67.528 16.254C68.396 14.966 69.614 13.986 71.182 13.314C72.75 12.614 74.542 12.264 76.558 12.264C79.582 12.264 82.032 13.006 83.908 14.49C85.812 15.946 86.862 17.99 87.058 20.622H80.59C80.534 19.614 80.1 18.788 79.288 18.144C78.504 17.472 77.454 17.136 76.138 17.136C74.99 17.136 74.066 17.43 73.366 18.018C72.694 18.606 72.358 19.46 72.358 20.58C72.358 21.364 72.61 22.022 73.114 22.554C73.646 23.058 74.29 23.478 75.046 23.814C75.83 24.122 76.922 24.486 78.322 24.906C80.226 25.466 81.78 26.026 82.984 26.586C84.188 27.146 85.224 27.986 86.092 29.106C86.96 30.226 87.394 31.696 87.394 33.516C87.394 35.084 86.988 36.54 86.176 37.884C85.364 39.228 84.174 40.306 82.606 41.118C81.038 41.902 79.176 42.294 77.02 42.294ZM94.9738 15.96C93.9378 15.96 93.0698 15.638 92.3698 14.994C91.6978 14.322 91.3618 13.496 91.3618 12.516C91.3618 11.536 91.6978 10.724 92.3698 10.08C93.0698 9.408 93.9378 9.072 94.9738 9.072C96.0098 9.072 96.8638 9.408 97.5358 10.08C98.2358 10.724 98.5858 11.536 98.5858 12.516C98.5858 13.496 98.2358 14.322 97.5358 14.994C96.8638 15.638 96.0098 15.96 94.9738 15.96ZM97.8718 18.732V42H91.9918V18.732H97.8718ZM110.027 23.562V34.818C110.027 35.602 110.209 36.176 110.573 36.54C110.965 36.876 111.609 37.044 112.505 37.044H115.235V42H111.539C106.583 42 104.105 39.592 104.105 34.776V23.562H101.333V18.732H104.105V12.978H110.027V18.732H115.235V23.562H110.027ZM124.844 22.344C125.6 21.112 126.58 20.146 127.784 19.446C129.016 18.746 130.416 18.396 131.984 18.396V24.57H130.43C128.582 24.57 127.182 25.004 126.23 25.872C125.306 26.74 124.844 28.252 124.844 30.408V42H118.964V18.732H124.844V22.344ZM138.427 15.96C137.391 15.96 136.523 15.638 135.823 14.994C135.151 14.322 134.815 13.496 134.815 12.516C134.815 11.536 135.151 10.724 135.823 10.08C136.523 9.408 137.391 9.072 138.427 9.072C139.463 9.072 140.317 9.408 140.989 10.08C141.689 10.724 142.039 11.536 142.039 12.516C142.039 13.496 141.689 14.322 140.989 14.994C140.317 15.638 139.463 15.96 138.427 15.96ZM141.325 18.732V42H135.445V18.732H141.325Z" fill="#CF87F0"/>
<path d="M157.302 23.562H153.228V42H147.264V23.562H144.618V18.732H147.264V17.556C147.264 14.7 148.076 12.6 149.7 11.256C151.324 9.912 153.774 9.282 157.05 9.366V14.322C155.622 14.294 154.628 14.532 154.068 15.036C153.508 15.54 153.228 16.45 153.228 17.766V18.732H157.302V23.562ZM182.873 18.732L168.467 53.004H162.209L167.249 41.412L157.925 18.732H164.519L170.525 34.986L176.615 18.732H182.873Z" fill="white"/>
<path d="M0 20.093C0 18.205 1.60522 16.6744 3.58537 16.6744C5.56551 16.6744 7.17073 18.205 7.17073 20.093V34.907C7.17073 36.795 5.56551 38.3256 3.58537 38.3256C1.60522 38.3256 0 36.795 0 34.907V20.093Z" fill="url(#paint0_linear_70_289)"/>
<path d="M8.36585 15.5349C8.36585 13.6468 9.97108 12.1163 11.9512 12.1163C13.9314 12.1163 15.5366 13.6468 15.5366 15.5349V39.4651C15.5366 41.3532 13.9314 42.8837 11.9512 42.8837C9.97108 42.8837 8.36585 41.3532 8.36585 39.4651V15.5349Z" fill="url(#paint1_linear_70_289)"/>
<path d="M16.7317 10.9767C16.7317 9.0887 18.3369 7.55814 20.3171 7.55814C22.2972 7.55814 23.9024 9.0887 23.9024 10.9767V44.0233C23.9024 45.9113 22.2972 47.4419 20.3171 47.4419C18.3369 47.4419 16.7317 45.9113 16.7317 44.0233V10.9767Z" fill="url(#paint2_linear_70_289)"/>
<path d="M25.0976 6.4186C25.0976 4.53056 26.7028 3 28.6829 3C30.6631 3 32.2683 4.53056 32.2683 6.4186V48.5814C32.2683 50.4694 30.6631 52 28.6829 52C26.7028 52 25.0976 50.4694 25.0976 48.5814V6.4186Z" fill="url(#paint3_linear_70_289)"/>
<path d="M33.4634 22.3721C33.4634 20.4841 35.0686 18.9535 37.0488 18.9535C39.0289 18.9535 40.6341 20.4841 40.6341 22.3721V32.6279C40.6341 34.516 39.0289 36.0465 37.0488 36.0465C35.0686 36.0465 33.4634 34.516 33.4634 32.6279V22.3721Z" fill="url(#paint4_linear_70_289)"/>
<path d="M41.8293 26.9302C41.8293 25.0422 43.4345 23.5116 45.4146 23.5116C47.3948 23.5116 49 25.0422 49 26.9302V28.0698C49 29.9578 47.3948 31.4884 45.4146 31.4884C43.4345 31.4884 41.8293 29.9578 41.8293 28.0698V26.9302Z" fill="url(#paint5_linear_70_289)"/>
<defs>
<linearGradient id="paint0_linear_70_289" x1="-6.31761" y1="-4.53848" x2="64.7963" y2="-0.177726" gradientUnits="userSpaceOnUse">
<stop stop-color="#B5179E"/>
<stop offset="1" stop-color="#7209B7"/>
</linearGradient>
<linearGradient id="paint1_linear_70_289" x1="-6.31761" y1="-4.53848" x2="64.7963" y2="-0.177726" gradientUnits="userSpaceOnUse">
<stop stop-color="#B5179E"/>
<stop offset="1" stop-color="#7209B7"/>
</linearGradient>
<linearGradient id="paint2_linear_70_289" x1="-6.31761" y1="-4.53848" x2="64.7963" y2="-0.177726" gradientUnits="userSpaceOnUse">
<stop stop-color="#B5179E"/>
<stop offset="1" stop-color="#7209B7"/>
</linearGradient>
<linearGradient id="paint3_linear_70_289" x1="-6.31761" y1="-4.53848" x2="64.7963" y2="-0.177726" gradientUnits="userSpaceOnUse">
<stop stop-color="#B5179E"/>
<stop offset="1" stop-color="#7209B7"/>
</linearGradient>
<linearGradient id="paint4_linear_70_289" x1="-6.31761" y1="-4.53848" x2="64.7963" y2="-0.177726" gradientUnits="userSpaceOnUse">
<stop stop-color="#B5179E"/>
<stop offset="1" stop-color="#7209B7"/>
</linearGradient>
<linearGradient id="paint5_linear_70_289" x1="-6.31761" y1="-4.53848" x2="64.7963" y2="-0.177726" gradientUnits="userSpaceOnUse">
<stop stop-color="#B5179E"/>
<stop offset="1" stop-color="#7209B7"/>
</linearGradient>
</defs>
</svg>
